<?xml version="1.0" encoding="UTF-8"?>
<!DOCTYPE svg PUBLIC "-//W3C//DTD SVG 1.1//EN" "http://www.w3.org/Graphics/SVG/1.1/DTD/svg11.dtd">
<!-- Creator: CorelDRAW X7 -->
<svg xmlns="http://www.w3.org/2000/svg" xml:space="preserve" width="855px" height="170px" version="1.1" style="shape-rendering:geometricPrecision; text-rendering:geometricPrecision; image-rendering:optimizeQuality; fill-rule:evenodd; clip-rule:evenodd"
viewBox="0 0 855 170"
 xmlns:xlink="http://www.w3.org/1999/xlink">
 <defs>
  <style type="text/css">
   <![CDATA[
    .str0 {stroke:#4D4D4D;stroke-width:7.99994}
    .fil0 {fill:none}
    .fil2 {fill:none;fill-rule:nonzero}
    .fil3 {fill:#8BBD00}
    .fil1 {fill:#4D4D4D;fill-rule:nonzero}
   ]]>
  </style>
 </defs>
 <g id="bg">
  <metadata id="CorelCorpID_0Corel-Layer"/>
  <rect class="fil0" x="2" y="1" width="851" height="169"/>
 </g>
 <g id="Layer_x0020_2">
  <metadata id="CorelCorpID_1Corel-Layer"/>
  <path class="fil1" d="M34 39l0 104c0,2 1,3 2,4 1,1 2,1 3,1 1,0 3,0 4,-1 1,-1 1,-2 1,-4l0 -96 35 96c1,3 4,5 7,5 3,0 5,-2 7,-5l34 -96 0 96c0,2 1,3 2,4 1,1 2,1 3,1 2,0 3,0 4,-1 1,-1 2,-2 2,-4l0 -104c0,-3 -1,-4 -3,-6 -1,-1 -3,-2 -4,-2 -2,0 -4,0 -6,1 -2,1 -3,3 -4,5l-3 9 -32 88 -32 -88 -4 -10c0,-1 -2,-3 -3,-4 -2,-1 -4,-1 -6,-1 -2,0 -4,1 -5,2 -1,2 -2,3 -2,6z"/>
  <path id="1" class="fil1" d="M218 126c-2,4 -6,7 -11,10 -5,2 -11,4 -19,4 -6,0 -11,-2 -14,-4 -3,-3 -5,-6 -5,-11 0,-6 2,-9 5,-12 3,-3 9,-5 17,-6 8,-1 15,-2 19,-3 4,-2 7,-3 8,-4l0 26zm-22 -65c-9,0 -16,2 -22,6 -5,4 -9,10 -10,18 0,1 0,3 1,3 1,1 2,2 3,2 2,0 3,0 4,-1 1,-1 2,-2 2,-3 0,-5 2,-9 5,-12 4,-3 10,-4 17,-4 7,0 13,1 17,4 3,2 5,6 5,11 0,4 -1,7 -5,9 -3,2 -10,3 -22,5 -13,1 -22,5 -27,10 -3,4 -5,9 -5,16 0,7 2,13 7,17 5,4 13,6 22,6 7,0 14,-1 19,-3 5,-2 8,-4 11,-7 0,3 1,5 3,6 3,2 7,2 13,2 2,0 3,0 4,-1 0,-1 1,-2 1,-3 0,-1 -1,-2 -1,-3 -1,-1 -2,-1 -4,-1 -2,0 -3,-1 -4,-2 -1,-1 -2,-2 -2,-4l0 -48c0,-8 -3,-14 -9,-18 -6,-3 -13,-5 -23,-5z"/>
  <path id="2" class="fil1" d="M253 67l0 76c0,2 0,3 1,4 1,1 2,1 4,1 1,0 2,0 3,-1 1,-1 2,-2 2,-4l0 -59c2,-4 5,-7 8,-9 4,-3 9,-4 14,-4 3,0 4,-2 4,-5 0,-3 -1,-5 -4,-5 -5,0 -9,2 -14,4 -3,2 -6,5 -8,8l0 -6c0,-1 -1,-3 -2,-3 -1,-1 -2,-1 -3,-1 -2,0 -3,0 -4,1 -1,1 -1,2 -1,3z"/>
  <path id="3" class="fil1" d="M304 36l0 107c0,2 0,3 1,4 1,1 3,1 4,1 1,0 2,0 3,-1 1,-1 2,-2 2,-4l0 -27 16 -15 31 45c1,1 2,2 3,2 2,0 3,0 4,-1 1,-1 2,-2 2,-3 0,-1 0,-3 -1,-4l-32 -45 28 -26c1,-1 2,-3 2,-4 0,-1 -1,-2 -2,-3 -1,-1 -2,-1 -3,-1 -1,0 -3,0 -4,1l-44 41 0 -67c0,-1 -1,-3 -2,-4 -1,0 -2,-1 -3,-1 -1,0 -3,1 -4,1 -1,1 -1,3 -1,4z"/>
  <path id="4" class="fil1" d="M441 122c-3,6 -6,10 -9,12 -5,4 -10,6 -17,6 -8,0 -14,-4 -19,-11 -4,-6 -7,-13 -7,-22l63 0 0 -2c0,-12 -3,-22 -9,-30 -7,-9 -16,-14 -28,-14 -11,0 -20,5 -27,14 -6,8 -9,18 -9,30 0,12 3,22 9,30 7,9 16,13 27,13 9,0 16,-2 22,-6 6,-3 10,-9 13,-16 1,-2 1,-3 0,-4 0,-1 -1,-2 -2,-3 -2,0 -3,0 -4,0 -2,1 -3,2 -3,3zm-52 -23c1,-8 3,-14 7,-19 5,-7 11,-10 19,-10 8,0 15,3 20,10 4,5 6,12 7,19l-53 0z"/>
  <path id="5" class="fil1" d="M477 43l0 21 -8 0c-3,0 -4,1 -4,4 0,3 1,5 4,5l8 0 0 60c0,4 2,8 4,10 3,4 7,5 12,5l7 0c2,0 3,0 4,-1 1,-1 1,-2 1,-3 0,-1 0,-2 -1,-3 -1,-1 -2,-1 -4,-1l-5 0c-3,0 -5,-1 -6,-3 -1,-1 -1,-2 -1,-4l0 -60 13 0c3,0 4,-2 4,-5 0,-3 -1,-4 -4,-4l-13 0 0 -21c0,-2 -1,-3 -2,-4 -1,0 -2,-1 -4,-1 -1,0 -2,1 -3,1 -1,1 -2,2 -2,4z"/>
  <path id="6" class="fil2 str0" d="M34 39l0 104c0,2 1,3 2,4 1,1 2,1 3,1 1,0 3,0 4,-1 1,-1 1,-2 1,-4l0 -96 35 96c1,3 4,5 7,5 3,0 5,-2 7,-5l34 -96 0 96c0,2 1,3 2,4 1,1 2,1 3,1 2,0 3,0 4,-1 1,-1 2,-2 2,-4l0 -104c0,-3 -1,-4 -3,-6 -1,-1 -3,-2 -4,-2 -2,0 -4,0 -6,1 -2,1 -3,3 -4,5l-3 9 -32 88 -32 -88 -4 -10c0,-1 -2,-3 -3,-4 -2,-1 -4,-1 -6,-1 -2,0 -4,1 -5,2 -1,2 -2,3 -2,6z"/>
  <path id="7" class="fil2 str0" d="M218 126c-2,4 -6,7 -11,10 -5,2 -11,4 -19,4 -6,0 -11,-2 -14,-4 -3,-3 -5,-6 -5,-11 0,-6 2,-9 5,-12 3,-3 9,-5 17,-6 8,-1 15,-2 19,-3 4,-2 7,-3 8,-4l0 26zm-22 -65c-9,0 -16,2 -22,6 -5,4 -9,10 -10,18 0,1 0,3 1,3 1,1 2,2 3,2 2,0 3,0 4,-1 1,-1 2,-2 2,-3 0,-5 2,-9 5,-12 4,-3 10,-4 17,-4 7,0 13,1 17,4 3,2 5,6 5,11 0,4 -1,7 -5,9 -3,2 -10,3 -22,5 -13,1 -22,5 -27,10 -3,4 -5,9 -5,16 0,7 2,13 7,17 5,4 13,6 22,6 7,0 14,-1 19,-3 5,-2 8,-4 11,-7 0,3 1,5 3,6 3,2 7,2 13,2 2,0 3,0 4,-1 0,-1 1,-2 1,-3 0,-1 -1,-2 -1,-3 -1,-1 -2,-1 -4,-1 -2,0 -3,-1 -4,-2 -1,-1 -2,-2 -2,-4l0 -48c0,-8 -3,-14 -9,-18 -6,-3 -13,-5 -23,-5z"/>
  <path id="8" class="fil2 str0" d="M253 67l0 76c0,2 0,3 1,4 1,1 2,1 4,1 1,0 2,0 3,-1 1,-1 2,-2 2,-4l0 -59c2,-4 5,-7 8,-9 4,-3 9,-4 14,-4 3,0 4,-2 4,-5 0,-3 -1,-5 -4,-5 -5,0 -9,2 -14,4 -3,2 -6,5 -8,8l0 -6c0,-1 -1,-3 -2,-3 -1,-1 -2,-1 -3,-1 -2,0 -3,0 -4,1 -1,1 -1,2 -1,3z"/>
  <path id="9" class="fil2 str0" d="M304 36l0 107c0,2 0,3 1,4 1,1 3,1 4,1 1,0 2,0 3,-1 1,-1 2,-2 2,-4l0 -27 16 -15 31 45c1,1 2,2 3,2 2,0 3,0 4,-1 1,-1 2,-2 2,-3 0,-1 0,-3 -1,-4l-32 -45 28 -26c1,-1 2,-3 2,-4 0,-1 -1,-2 -2,-3 -1,-1 -2,-1 -3,-1 -1,0 -3,0 -4,1l-44 41 0 -67c0,-1 -1,-3 -2,-4 -1,0 -2,-1 -3,-1 -1,0 -3,1 -4,1 -1,1 -1,3 -1,4z"/>
  <path id="10" class="fil2 str0" d="M441 122c-3,6 -6,10 -9,12 -5,4 -10,6 -17,6 -8,0 -14,-4 -19,-11 -4,-6 -7,-13 -7,-22l63 0 0 -2c0,-12 -3,-22 -9,-30 -7,-9 -16,-14 -28,-14 -11,0 -20,5 -27,14 -6,8 -9,18 -9,30 0,12 3,22 9,30 7,9 16,13 27,13 9,0 16,-2 22,-6 6,-3 10,-9 13,-16 1,-2 1,-3 0,-4 0,-1 -1,-2 -2,-3 -2,0 -3,0 -4,0 -2,1 -3,2 -3,3zm-52 -23c1,-8 3,-14 7,-19 5,-7 11,-10 19,-10 8,0 15,3 20,10 4,5 6,12 7,19l-53 0z"/>
  <path id="11" class="fil2 str0" d="M477 43l0 21 -8 0c-3,0 -4,1 -4,4 0,3 1,5 4,5l8 0 0 60c0,4 2,8 4,10 3,4 7,5 12,5l7 0c2,0 3,0 4,-1 1,-1 1,-2 1,-3 0,-1 0,-2 -1,-3 -1,-1 -2,-1 -4,-1l-5 0c-3,0 -5,-1 -6,-3 -1,-1 -1,-2 -1,-4l0 -60 13 0c3,0 4,-2 4,-5 0,-3 -1,-4 -4,-4l-13 0 0 -21c0,-2 -1,-3 -2,-4 -1,0 -2,-1 -4,-1 -1,0 -2,1 -3,1 -1,1 -2,2 -2,4z"/>
  <rect class="fil3" x="563" y="78" width="15.7227" height="67.1209"/>
  <rect class="fil3" x="532" y="107" width="15.7227" height="39.8683"/>
  <path class="fil1" d="M703 150l-31 0c0,-2 -6,-12 -16,-28 -12,-17 -20,-26 -25,-26l-3 0c0,14 1,32 1,54l-27 0c1,-18 1,-38 1,-61 0,-22 0,-40 -1,-56l27 0c0,17 -1,32 -1,47l2 0c3,0 10,-7 22,-22 11,-15 16,-23 16,-25l29 0c0,2 -6,10 -18,23 -12,13 -21,21 -26,25l0 1c6,4 17,16 31,36 13,19 19,30 19,32z"/>
  <path id="1" class="fil1" d="M806 64c0,14 -6,25 -17,32 -11,6 -25,10 -42,10 -3,0 -5,0 -6,0 0,11 0,26 1,44l-27 0c1,-17 1,-37 1,-61 0,-22 0,-40 -1,-56l17 0c2,0 7,0 13,0 7,0 13,0 18,0 12,0 22,2 31,7 8,5 12,13 12,24zm-25 5c0,-13 -9,-20 -27,-20 -4,0 -9,1 -14,2 0,11 1,24 1,38 1,1 3,1 5,1 24,0 35,-7 35,-21z"/>
  <path id="2" class="fil1" d="M848 150l-27 0c1,-18 1,-39 1,-61 0,-22 0,-41 -1,-56l27 0c-1,15 -1,34 -1,56 0,23 0,43 1,61z"/>
 </g>
</svg>
